<?xml version="1.0" standalone="no"?>
<!DOCTYPE svg PUBLIC "-//W3C//DTD SVG 20010904//EN"
 "http://www.w3.org/TR/2001/REC-SVG-20010904/DTD/svg10.dtd">
<svg version="1.0" xmlns="http://www.w3.org/2000/svg"
 width="260.000000pt" height="260.000000pt" viewBox="0 0 260.000000 260.000000"
 preserveAspectRatio="xMidYMid meet">
<metadata>
Created by potrace 1.11, written by Peter Selinger 2001-2013
</metadata>
<g transform="translate(0.000000,260.000000) scale(0.100000,-0.100000)"
fill="#000000" stroke="none">
<path d="M790 2162 l0 -393 23 3 c15 2 21 9 19 21 -4 22 9 22 51 -2 124 -70
259 -22 318 113 34 77 33 210 -3 287 -51 112 -164 146 -283 87 -22 -11 -48
-27 -57 -36 -17 -14 -18 -6 -18 151 l0 167 -25 -2 -25 -2 0 -394z m313 74 c81
-54 96 -258 26 -361 -13 -19 -43 -45 -66 -56 -54 -26 -120 -19 -180 19 l-43
27 0 156 c0 149 1 156 23 175 80 71 169 86 240 40z"/>
<path d="M1519 2301 c-117 -37 -183 -148 -174 -295 9 -151 106 -248 246 -247
76 0 159 34 152 62 -7 24 -11 24 -64 -1 -95 -43 -198 -14 -250 70 -20 33 -44
119 -35 128 4 3 91 7 193 7 l186 0 -6 74 c-9 124 -72 197 -179 206 -24 2 -55
0 -69 -4z m154 -79 c28 -29 60 -130 46 -147 -5 -7 -67 -11 -165 -10 -182 0
-181 -1 -134 93 33 64 72 94 135 102 51 7 86 -4 118 -38z"/>
<path d="M2087 2300 c-28 -9 -99 -57 -105 -72 -9 -20 -22 -5 -22 26 0 32 -13
46 -41 46 -5 0 -9 -111 -9 -265 l0 -265 25 0 c29 0 27 -17 27 229 0 152 2 165
22 188 81 94 222 96 257 5 6 -14 10 -115 9 -224 l0 -198 25 0 c29 0 27 -16 26
228 0 169 -9 225 -38 259 -39 44 -113 62 -176 43z"/>
<path d="M2487 1842 c-32 -35 -15 -82 28 -82 44 0 61 52 27 83 -24 22 -35 21
-55 -1z"/>
<path d="M1295 1644 c-24 -25 -4 -73 32 -74 16 0 43 28 43 45 0 7 -7 21 -16
29 -20 20 -38 20 -59 0z"/>
<path d="M369 1451 c-30 -10 -75 -37 -106 -65 -18 -15 -23 -16 -25 -5 0 8 -2
19 -3 24 -2 6 -3 18 -4 28 -1 10 -9 17 -21 17 -19 0 -20 -7 -20 -265 l0 -265
25 0 25 0 0 198 0 198 28 26 c73 70 162 89 215 48 39 -31 47 -77 47 -282 l0
-188 26 0 26 0 -4 213 c-3 182 -6 217 -22 248 -31 61 -115 92 -187 70z"/>
<path d="M890 1447 c-56 -18 -123 -92 -144 -161 -35 -112 -8 -251 63 -314 69
-62 176 -80 266 -44 35 14 51 26 53 41 4 26 -4 26 -63 0 -130 -58 -275 31
-279 170 l-1 35 185 1 185 0 -2 67 c-2 126 -66 203 -174 211 -30 3 -70 0 -89
-6z m165 -70 c34 -34 59 -100 53 -140 -3 -22 -7 -22 -166 -23 l-164 -1 7 36
c9 53 55 121 95 142 21 12 55 19 88 19 48 0 58 -4 87 -33z"/>
<path d="M1601 1443 c-45 -15 -78 -53 -87 -98 -14 -78 20 -118 144 -170 48
-20 97 -44 109 -53 34 -25 44 -72 25 -111 -37 -77 -147 -81 -260 -10 -20 12
-24 12 -32 -1 -15 -23 -8 -31 45 -59 42 -22 63 -26 132 -26 67 0 87 4 109 21
55 41 70 75 65 153 -2 39 -59 86 -145 117 -129 48 -174 106 -126 167 38 48
109 55 184 17 34 -17 40 -17 54 -4 13 13 12 17 -4 29 -26 21 -114 46 -148 43
-16 -2 -45 -8 -65 -15z"/>
<path d="M2094 1436 c-87 -40 -134 -123 -140 -243 -11 -205 146 -331 335 -268
56 18 74 34 61 54 -7 12 -17 10 -61 -8 -135 -58 -276 25 -282 166 l-2 37 188
0 187 0 0 41 c0 60 -23 138 -51 173 -53 67 -151 87 -235 48z m170 -47 c35 -27
62 -84 65 -135 l2 -41 -165 1 -166 0 6 31 c8 47 45 113 73 133 41 27 53 31
107 31 38 1 58 -5 78 -20z"/>
<path d="M1305 1441 c-3 -2 -5 -121 -5 -263 l0 -258 25 0 25 0 0 264 c0 261 0
265 -20 263 -12 -1 -23 -3 -25 -6z"/>
<path d="M2513 995 c-16 -11 -20 -22 -17 -42 6 -31 19 -43 51 -43 25 0 30 6
37 43 3 20 -1 31 -17 42 -12 8 -24 15 -27 15 -3 0 -15 -7 -27 -15z"/>
<path d="M2164 435 l0 -395 23 0 c25 0 25 -2 27 88 0 34 6 66 11 70 6 4 30 31
54 60 23 28 46 52 50 52 4 0 45 -61 91 -135 75 -123 85 -135 111 -135 l29 0
-51 83 c-29 45 -71 111 -93 147 -23 36 -45 70 -49 76 -3 6 32 57 78 114 47 56
85 105 85 107 0 8 -63 -6 -69 -15 -7 -11 -243 -302 -245 -302 -1 0 -1 130 -1
290 l0 290 -26 0 -25 0 0 -395z"/>
<path d="M406 557 c-93 -42 -137 -113 -144 -233 -5 -98 14 -168 62 -222 72
-82 200 -97 298 -36 40 26 44 34 27 51 -8 8 -20 5 -46 -12 -78 -54 -182 -41
-240 30 -37 44 -53 95 -53 167 0 177 142 281 276 203 43 -25 43 -25 54 -5 9
17 6 23 -22 40 -71 43 -141 49 -212 17z"/>
<path d="M896 568 c-57 -16 -127 -89 -149 -157 -34 -106 -12 -238 51 -308 92
-103 257 -98 343 11 81 104 74 297 -15 394 -49 55 -153 82 -230 60z m143 -53
c43 -22 79 -70 96 -127 19 -65 19 -111 0 -176 -34 -114 -142 -169 -239 -123
-55 27 -72 47 -96 108 -25 66 -21 172 7 228 21 41 52 74 88 93 29 16 111 15
144 -3z"/>
<path d="M1580 371 c0 -240 10 -286 70 -320 44 -24 115 -28 163 -7 18 7 49 29
70 49 l37 36 0 -45 c0 -41 2 -45 22 -42 l23 3 0 258 c0 143 -3 261 -8 264 -4
2 -15 2 -25 -1 -17 -6 -18 -21 -17 -196 l1 -189 -31 -35 c-64 -71 -133 -93
-195 -61 -52 27 -60 65 -60 284 l0 197 -25 2 -25 2 0 -199z"/>
<path d="M1342 114 c-39 -27 -23 -84 23 -84 43 0 61 53 29 84 -19 20 -24 20
-52 0z"/>
</g>
</svg>
