<?xml version="1.0" standalone="no"?>
<!DOCTYPE svg PUBLIC "-//W3C//DTD SVG 20010904//EN"
 "http://www.w3.org/TR/2001/REC-SVG-20010904/DTD/svg10.dtd">
<svg version="1.0" xmlns="http://www.w3.org/2000/svg"
 width="260.000000pt" height="260.000000pt" viewBox="0 0 260.000000 260.000000"
 preserveAspectRatio="xMidYMid meet">
<metadata>
Created by potrace 1.11, written by Peter Selinger 2001-2013
</metadata>
<g transform="translate(0.000000,260.000000) scale(0.100000,-0.100000)"
fill="#000000" stroke="none">
<path d="M50 2065 l0 -355 40 0 c38 0 40 1 40 33 1 27 2 29 11 14 28 -48 144
-72 212 -44 88 37 144 155 134 280 -10 116 -69 191 -160 203 -68 10 -114 -3
-158 -43 l-39 -35 0 151 0 151 -40 0 -40 0 0 -355z m298 48 c13 -8 33 -35 44
-61 17 -37 20 -58 15 -115 -10 -112 -56 -168 -141 -169 -58 -1 -90 16 -119 61
-18 30 -22 50 -21 116 1 89 16 131 61 163 48 34 113 36 161 5z"/>
<path d="M720 2185 c-46 -21 -87 -61 -113 -110 -32 -58 -31 -202 0 -261 27
-50 70 -88 119 -104 49 -16 150 -9 199 15 35 18 40 25 43 58 l3 39 -46 -27
c-57 -34 -144 -38 -193 -9 -34 19 -72 85 -72 122 0 22 2 22 171 22 l172 0 -6
65 c-12 127 -72 194 -179 201 -44 3 -74 0 -98 -11z m125 -59 c38 -16 62 -47
71 -94 l7 -32 -132 0 c-72 0 -131 3 -131 7 0 4 10 27 21 51 16 33 32 49 63 63
50 23 57 23 101 5z"/>
<path d="M1275 2186 c-17 -7 -43 -28 -58 -45 l-27 -33 0 41 0 41 -40 0 -40 0
0 -240 0 -240 40 0 40 0 0 153 c0 127 3 159 19 194 25 53 60 76 117 76 91 0
114 -59 114 -289 l0 -134 36 0 36 0 -4 193 c-3 179 -5 194 -26 228 -39 63
-132 88 -207 55z"/>
<path d="M1663 1797 c-31 -14 -38 -43 -19 -72 22 -33 60 -33 81 -1 28 43 -16
94 -62 73z"/>
<path d="M1105 1627 c-18 -27 -12 -53 17 -68 27 -15 57 -2 64 28 14 55 -50 87
-81 40z"/>
<path d="M208 1420 c-20 -11 -44 -30 -52 -42 -16 -22 -16 -22 -16 15 0 37 0
37 -40 37 l-40 0 0 -240 0 -240 40 0 41 0 -3 163 c-3 153 -2 164 19 198 33 53
85 75 143 59 31 -8 42 -19 59 -53 19 -38 21 -62 21 -205 l0 -162 41 0 41 0 -4
183 c-4 199 -13 238 -71 281 -39 29 -131 32 -179 6z"/>
<path d="M710 1424 c-109 -47 -164 -184 -130 -324 32 -131 167 -193 315 -142
48 16 50 19 56 59 l5 42 -43 -26 c-55 -32 -144 -36 -191 -7 -34 19 -72 85 -72
122 0 22 2 22 171 22 l172 0 -7 62 c-8 68 -27 121 -54 152 -45 51 -153 70
-222 40z m143 -66 c23 -12 44 -46 52 -85 l7 -33 -132 0 -131 0 6 23 c30 97
116 138 198 95z"/>
<path d="M1407 1426 c-46 -17 -64 -32 -83 -67 -18 -36 -18 -83 2 -120 12 -24
37 -41 110 -75 102 -47 122 -71 104 -118 -17 -47 -130 -55 -197 -16 l-33 19 0
-44 c0 -42 1 -44 38 -54 95 -27 206 -3 250 54 27 34 30 109 6 144 -9 13 -58
43 -109 66 -51 24 -95 51 -99 60 -33 88 61 128 188 79 15 -6 17 -1 14 32 -2
31 -8 40 -28 45 -42 12 -123 9 -163 -5z"/>
<path d="M1845 1422 c-43 -20 -84 -63 -113 -116 -26 -49 -23 -198 5 -252 27
-50 70 -88 119 -104 48 -16 158 -8 207 16 33 16 37 22 37 55 l0 38 -45 -26
c-60 -33 -153 -36 -192 -6 -39 28 -61 63 -69 106 l-6 37 172 0 173 0 -6 65
c-12 127 -72 194 -179 202 -48 3 -73 -1 -103 -15z m130 -56 c38 -16 62 -47 71
-94 l7 -32 -131 0 -131 0 8 28 c14 47 34 71 76 92 48 24 56 24 100 6z"/>
<path d="M1100 1190 l0 -240 40 0 40 0 0 240 0 240 -40 0 -40 0 0 -240z"/>
<path d="M2230 1019 c-27 -49 20 -96 69 -69 24 12 29 58 9 78 -20 20 -66 15
-78 -9z"/>
<path d="M1530 575 l0 -295 30 0 30 0 0 98 1 97 92 -98 c90 -95 93 -97 137
-97 l45 0 -103 103 -102 102 91 98 91 97 -39 0 c-35 0 -44 -6 -118 -89 -44
-49 -83 -90 -87 -90 -5 -1 -8 82 -8 184 l0 185 -30 0 -30 0 0 -295z"/>
<path d="M194 681 c-85 -21 -141 -90 -151 -185 -13 -127 66 -219 187 -219 79
0 110 15 110 53 0 29 -1 30 -22 16 -13 -8 -41 -18 -63 -21 -110 -16 -185 102
-141 220 30 77 106 112 180 81 21 -9 40 -16 42 -16 11 0 2 59 -10 63 -28 11
-102 15 -132 8z"/>
<path d="M545 675 c-59 -15 -108 -64 -124 -122 -48 -171 66 -307 229 -272 96
21 144 88 144 204 0 109 -46 175 -136 195 -58 12 -50 12 -113 -5z m151 -78
c58 -63 55 -184 -6 -242 -26 -25 -40 -30 -80 -30 -91 0 -145 66 -136 169 5 68
26 102 77 129 51 27 106 17 145 -26z"/>
<path d="M1070 542 c0 -149 8 -193 42 -229 50 -54 154 -50 202 8 l26 31 0 -36
c0 -33 2 -36 30 -36 l30 0 0 200 0 200 -30 0 -30 0 0 -124 c0 -69 -5 -137 -11
-153 -24 -64 -84 -96 -139 -73 -49 20 -60 61 -60 214 l0 136 -30 0 -30 0 0
-138z"/>
<path d="M900 340 c-22 -22 -17 -45 11 -61 27 -14 64 23 50 50 -16 28 -39 33
-61 11z"/>
</g>
</svg>
